<svg xmlns="http://www.w3.org/2000/svg" viewBox="0 0 150.13 120.07"><defs><style>.cls-1{fill:#fff;}</style></defs><title>Asset 1</title><g id="Layer_2" data-name="Layer 2"><g id="Layer_1-2" data-name="Layer 1"><path class="cls-1" d="M426,620.1V619h1.5c1,.2,1.3.1,1.5-.3a11.16,11.16,0,0,0,0-2.6V606h-2.8c-1.7-.5-2,.3-2.5,2.5h0c0,.1-.9.1-.7.1V605h15v4h0v-.93c-.54-3.07-1.61-3.07-3.54-3.07H432v10.73c0,3,0,3.27,1.93,3.27H435v1h-8.4Z" transform="translate(-422.97 -519.5)"/><path class="cls-1" d="M452,620v-1h1.21c1,0,1.37-.1,1.58-.52a8.3,8.3,0,0,0,.21-2.72V612h-8v3.66c0,3,0,3.34,1.89,3.34H449v1h-7v-1h.6c1.8.2,1.8-.1,1.4-3v-7.4c.4-2.1-1.7-3.6-1.7-3.6h7c-1.48,0-2.32,1-2.32,3.15V611h8v-2.85c0-3.15,0-3.15-1.89-3.15h6.19c-1.4.5-2.1,1.5-2.3,3.6V616c.2,2.9,2,3,2,3h0v1h-7Z" transform="translate(-422.97 -519.5)"/><path class="cls-1" d="M463,620v-1h.8c1.8.2,1.8-.1,1.2-3v-7.4c.6-3,.6-3.1-1.2-3.6h10.52l.39,4h-.51c-.63-3-1.63-3-3.9-3H468v5h1.7a1.93,1.93,0,0,0,2.3-1.7V609h1v5h-1v.5c-.2-2.2-.6-2.2-2.3-2.5H468v3.7s.3,3.5,2.3,3.3h1.1c1.3.2,3.4.2,4.4-3.9h0c0-.1.9-.1.9-.1l-.3,5H463Z" transform="translate(-422.97 -519.5)"/><path class="cls-1" d="M499,620v-1h1.2s1.8-.1,1.8-3v-8.9L496.2,620h-.8L490,607.1v9.3c-.4,1.9,1.9,2.6,1.9,2.6h.1v1h-6v-1h.5c1.2.2,2.3-.2,2.5-2.7v-7.7c-.2-3.1-2-3.6-2-3.6h4.4l5.5,11.9,5.5-11.9h4.2c-1.8.5-1.9.5-1.6,3.6V616c-.3,2.9,1.5,3,1.5,3h.5v1h-8Z" transform="translate(-422.97 -519.5)"/><path class="cls-1" d="M521,620.1V619h1.63c.33,0,.44-.22.44-.54s-.22-.55-.33-1L521.33,614h-5.8l-.85,2.23a4.44,4.44,0,0,0-.43,1.49c0,.64.43,1.28,1.6,1.28H516v1h-5v-1h.2c.4,0,1.41-.2,2-1.71L518.75,604h.71l5.73,13.39a2.07,2.07,0,0,0,1.92,1.61H528v1h-7.1Zm-.3-6.1-2.4-5.8-2.4,5.8Z" transform="translate(-422.97 -519.5)"/><path class="cls-1" d="M543.74,619.91h0a10.59,10.59,0,0,1-2-2.09l-2.27-3.12c-1.23-1.7-1.61-1.7-2.37-1.7H536v3.55a9.19,9.19,0,0,0,.22,2.91c.21.43.64.54,1.61.54l1.17-1v1h-8v-1h.7s1.8,0,1.3-2.9v-7.4c.5-3.1.5-3.1-1.4-3.7H531v-1h.4a33.88,33.88,0,0,0,5.7,1h1.06c4.07,0,6.34,1.42,6.34,3.88s-1.42,3.31-3.88,3.69a8.29,8.29,0,0,1,1.7,1.79l1.8,2.37c.85,1,2,2.27,3.69,2.27H548v1h-4.16ZM537.18,612c2.91,0,4.1-1.08,4.1-3.45s-1.73-3.55-4.42-3.55H536v7Z" transform="translate(-422.97 -519.5)"/><path class="cls-1" d="M552,620v-1h0c1.8.2,1.8-.1,2-3v-7.4c-.2-3-2.1-3.6-2.1-3.6h6.3c-1.8.5-1.9.5-2.2,3.6V616c.3,2.9,2.1,3,2.1,3h.9v1h-7Z" transform="translate(-422.97 -519.5)"/><path class="cls-1" d="M568.6,620.4a5.52,5.52,0,0,1-4.2-1.8,4,4,0,0,0-.4,1.2v.2h-1v-5h1v.2c.57,3.1,2,4.6,4.16,4.6a2.71,2.71,0,0,0,3-2.8c0-1.4-1.7-2.7-3.12-3.3l-.29-.2c-2.17-1-4.44-2.1-4.44-5s1.42-3.9,4-3.9,2.84.9,3.31,1.5a2.19,2.19,0,0,0,.38-1V605h1v4h-1.1c-.8-3.4-3.2-3.7-3.9-3.7a2.23,2.23,0,0,0-2.5,2.1c0,1.6,1.5,2.4,3.6,3.2,3.1,1.3,5,2.3,5,5.2s-1.3,4.5-5,4.5" transform="translate(-422.97 -519.5)"/><path class="cls-1" d="M477.21,625c0-.5-.21-.8-.83-.8s-.63,0-.84.3a4.79,4.79,0,0,0-.31.7,6.59,6.59,0,0,1-.21,1.2,17.09,17.09,0,0,1-.31,1.8,14.72,14.72,0,0,1-.52,2,9.68,9.68,0,0,1-.73,1.8c-.42.8-.73,1.4-1.36,1.4s-.73-.5-1-1.2a47.55,47.55,0,0,1-2.08-6.8c-.1-.6-.42-.9-.83-.9a1.06,1.06,0,0,0-.84.3,1.19,1.19,0,0,0-.31.9v.6c.21.9.52,2.2.94,3.6a20.86,20.86,0,0,0,1.56,3.8,9.8,9.8,0,0,0,.94,1.5,1.45,1.45,0,0,0,1.14.6c1.25,0,2.09-1.1,2.92-2.7a26,26,0,0,0,2.5-7.7V625h.21Z" transform="translate(-422.97 -519.5)"/><path class="cls-1" d="M502.91,631.23c-1.75,0-1.44,2.26-3.19,2.26s-1.34-1-1.34-1.85a1.89,1.89,0,0,1,.41-1.34,1.7,1.7,0,0,1,1.24-.51c.51,0,.72,0,.93.2s.41.31.72.52a.75.75,0,0,0,.61.2,1,1,0,0,0,.93-1,2.47,2.47,0,0,0-2.47-1.75,3.2,3.2,0,0,0-2.68,1.24,4.35,4.35,0,0,0-1.13,1.85l-.2.62c-.21.62-.31,1.13-.93,1.13-1,0-.93-4.12-2.68-4.12-1,0-1.64.93-2.06,1.86s-.72,1.75-1.13,1.85c-.82,0-1.13-4.22-2.78-4.22s-2.06,1.23-3,3.81c-.21.62-.52,1-1,1s-.62-.72-.62-2c0-1.54,0-2.26-.82-2.26s-1,.72-1.34,2.16c-.31,2.06-.83,2.26-1.44,2.26s-.93-.82-.93-1.85v-1.75h0a.86.86,0,0,0-.21-.72c-.1-.21-.3-.31-.72-.31s-1,.1-1,.93c0,.62-.1,1.54-.1,2.26,0,1.86.41,3.4,2.16,3.4s2.06-1.34,2.37-2.06a.27.27,0,0,1,.31-.31c.21,0,.1,0,.21.31a1.57,1.57,0,0,0,1.54,1.75c1.34,0,1.54-.51,2.06-1.65a3,3,0,0,0,.41-1V632c.31-.82.51-1.24,1.13-1.24,1.34,0,1.13,4.12,2.88,4.12s2.06-3.7,3.2-3.7.82.82,1.13,1.75.72,1.75,1.65,1.75,1.33-.52,1.85-1.34a2.36,2.36,0,0,0,2.16,2c1.54,0,2.26-1.34,2.68-2.06,0-.1.2-.2.2-.2.21,0,.21.41.21,1.23,0,2.68-.83,3.71-2.37,3.71s-1.54-.41-2.06-.41-.72.41-.72.92c0,1,1.24,1.14,2.37,1.14,2.16,0,4.63-2,4.63-5.36s0-3.08-.93-3.08h0Z" transform="translate(-422.97 -519.5)"/><path class="cls-1" d="M513.53,626a.81.81,0,0,0,.73-.39,1.34,1.34,0,0,0,.21-.87c0-.29-.21-.58-.73-.68S512.58,624,512,624a22.63,22.63,0,0,0-8.11,1.45c-.42.19-.63.48-.63.68a.6.6,0,0,0,.63.67,1.29,1.29,0,0,0,.63-.09,4.27,4.27,0,0,1,.64-.2,23.19,23.19,0,0,1,2.94-.58,15.45,15.45,0,0,0-1.05,6.39v1.84c0,.68.32.87.84.87h.53a.77.77,0,0,0,.63-.77v-3.88a12.84,12.84,0,0,1,.74-4.54c2.52,0,3.26.19,3.89.19h-.1Z" transform="translate(-422.97 -519.5)"/><path class="cls-1" d="M528.7,631c-.19,0-.29.2-.39.3l-.3.8c-.19.7-.49,1.3-1.08,1.3s-.59-.7-.59-1.9c0-1.5,0-2.2-.79-2.2s-1,.7-1.28,2.1c-.3,2-.79,2.2-1.38,2.2s-.89-.8-.89-1.8v-1.7h0a.84.84,0,0,0-.2-.7c-.1-.2-.29-.3-.69-.3s-1,.1-1,.9a8.08,8.08,0,0,1-.1,1.5l-.2.6c-.1.3-.29.6-.39.9a.54.54,0,0,1-.59.4c-.5,0-.79-1.3-1.09-2.1a.66.66,0,0,0-.69-.4.6.6,0,0,0-.69.4c-.59,1-.79,2.4-2.07,2.4s-1.28-1-1.28-1.7.69-1.8,1.58-1.8a18.92,18.92,0,0,1,1.87.3c.49,0,.89-.4.89-1.1s-1-1-1.78-1a4.42,4.42,0,0,0-4.24,4.2c0,2,1,3,2.17,3,1.58,0,2.27-1.6,2.76-2.3q.15-.3.3-.3c.1,0,.19.1.29.3.4.9.59,1.9,1.48,1.9s1.19-.5,1.78-1.6h0c.19,1.2.79,1.9,2,1.9s2-1.3,2.27-2c0-.2.09-.3.29-.3s.1,0,.2.3a1.53,1.53,0,0,0,1.48,1.7c1.28,0,1.48-.5,2-1.6a8.4,8.4,0,0,0,.69-1.9v-.3a.43.43,0,0,0-.39-.4h.09Z" transform="translate(-422.97 -519.5)"/><path class="cls-1" d="M486.6,583.8c-5.9-8.5-9-17.4-9-25.6s3.1-17,9-25.6a60.16,60.16,0,0,1,9.1-10.6l1.2-1.1a1.66,1.66,0,0,1,2.1,0l1.2,1.1a65.45,65.45,0,0,1,9.1,10.6c5.9,8.5,9,17.4,9,25.6s-3.1,17-9,25.6a60.16,60.16,0,0,1-9.1,10.6l-1.2,1.1a1.66,1.66,0,0,1-2.1,0l-1.2-1.1h0a65.45,65.45,0,0,1-9.1-10.6m8.4-62.5a64.92,64.92,0,0,0-9.2,10.8c-6,8.7-9.2,17.7-9.2,26.1s3.2,17.4,9.2,26.1a65.28,65.28,0,0,0,9.2,10.8l1.4,1.2a2.3,2.3,0,0,0,3.1,0l1.4-1.2a64.92,64.92,0,0,0,9.2-10.8c6-8.7,9.2-17.7,9.2-26.1s-3.2-17.4-9.2-26.1a71,71,0,0,0-9.2-10.8l-1.4-1.2a2.3,2.3,0,0,0-3.1,0l-1.4,1.2Z" transform="translate(-422.97 -519.5)"/><path class="cls-1" d="M497,522.19h0a63.83,63.83,0,0,0-9.39,11.14,10.48,10.48,0,0,1,2.79,0,75.45,75.45,0,0,1,6.91-8.25,1,1,0,0,1,1.44,0c3.92,3.92,16.1,17.43,16.1,33.22s-2.17,12.79-4.85,18.06v1a6.88,6.88,0,0,1-2.79,4.43,5.32,5.32,0,0,1-.82.52,61.44,61.44,0,0,1-7.64,9.18,1,1,0,0,1-1.44,0c-3.92-3.92-16.1-17.43-16.1-33.22s.62-6.81,1.55-10a17.32,17.32,0,0,1-2.16-.82,36.85,36.85,0,0,0-1.66,10.83c0,19.71,17.85,35.9,18.06,36h0a1.73,1.73,0,0,0,2.17,0h0c.2-.21,18.05-16.3,18.05-36s-17.85-35.9-18.05-36h0a1.73,1.73,0,0,0-2.17,0h0Z" transform="translate(-422.97 -519.5)"/><path class="cls-1" d="M495.2,564.1a17.26,17.26,0,0,1,1.9-2.8h0a16.44,16.44,0,0,1,6-3.9h0s-.5,1.5-4.6,4.9-4.7,5.6-4.7,5.6a9.43,9.43,0,0,1,1.2-3.8m9.8-11.2a14.88,14.88,0,0,1-.9,3c-10,3.3-11.5,11-11.3,15.7-.8-7.1,1.4-14.8,12.2-18.7M492,558.8c2.1-4.7,6.5-8.1,13-10.2a9.4,9.4,0,0,1,0,2.9v.2c-12.7,4.3-14.5,13.4-13.3,21.3-1-3.3-2.2-9,.2-14.3m-3.2,6.9c0-1-.1-2,0-3A17.62,17.62,0,0,1,499,548h.1c.1,0,.2-.1.3-.2.6-.3,1.1-.6,1.7-.9h0c.2,0,.3-.2.5-.3l.6-.4h0a1.44,1.44,0,0,0,.3-.2s.2-.1.2-.2a.2.2,0,0,0,.2-.2c.1,0,.2-.2.4-.3h0c.2-.1.3-.3.5-.4h0c0,.2.2.4.3.7a8.3,8.3,0,0,1,.6,2.1c-6.9,2.2-11.6,5.8-13.8,10.8a19.55,19.55,0,0,0-1,12,16,16,0,0,1-1.2-4.9m0-17.6a21.3,21.3,0,0,1-2.5-.3,12.72,12.72,0,0,0,6.2-7.4,14.27,14.27,0,0,1-2.9,7.7H489m4.4-8.8a14,14,0,0,1-.2,8.1,21.05,21.05,0,0,1-2.5.2,15.74,15.74,0,0,0,2.7-8.3m1-.7a14.51,14.51,0,0,1,2.5,7.9,20.16,20.16,0,0,1-2.3.7,15.34,15.34,0,0,0-.1-8.5m1-.2a15.71,15.71,0,0,1,4.7,6.4,12.68,12.68,0,0,1-2.3,1.2,15.71,15.71,0,0,0-2.3-7.6m.2-1.2a14.5,14.5,0,0,1,7,5.7s-.2.1-.2.2-.2.2-.4.3a1.44,1.44,0,0,0-.3.2c-.1,0-.3.2-.4.3s-.1,0-.2.2a.31.31,0,0,0-.2.1,15.36,15.36,0,0,0-5.4-6.9m-7.9-3h0c-.1.2-.3.4-.4.6a3.35,3.35,0,0,1,1.3.8c.2.1.3.3.5.5.9.9,1.5,2.4.5,4.7-.1.3-.3.5-.4.8h0a8.47,8.47,0,0,1-5.1,4.2,1.27,1.27,0,0,0-.6.1h-1.88c-.21.72-.52,1.44-.72,2a17.19,17.19,0,0,0,2.15.82,24.09,24.09,0,0,0,5.54,1.13h1.93a11.53,11.53,0,0,0,2.61-.2A19.63,19.63,0,0,0,487,562.68V566a20,20,0,0,0,12.05,16.3.37.37,0,0,1,.3.1h0a8,8,0,0,0,3,.51,8.77,8.77,0,0,0,4.11-1.11,7.91,7.91,0,0,0,.81-.5A6.52,6.52,0,0,0,510,577v-1a6.46,6.46,0,0,0-1.31-3.82,5.8,5.8,0,0,0-4.52-2.22,4.3,4.3,0,0,0-3.31,1.11,4.55,4.55,0,0,0-1,6.44,3.85,3.85,0,0,0,2.61,1.51,4.12,4.12,0,0,0,3-.7,1.08,1.08,0,0,0-1.31-1.71,1.59,1.59,0,0,1-1.3.3,1.86,1.86,0,0,1-1.52-1.23,2.43,2.43,0,0,1,.38-2.52,3.49,3.49,0,0,1,5.26.33,4.38,4.38,0,0,1,.8,3.32,4.16,4.16,0,0,1-1.1,2.31h0l-.21.2c-2.1,1.91-6.83,2.42-9.64-2.61-.2-.31-.3-.71-.5-1-2.21-5.63,1.21-8.55,6.13-13.18h0a16.05,16.05,0,0,0,5.32-10h0a15.9,15.9,0,0,0-1.71-9.16,14,14,0,0,0-1-1.81h0a16.76,16.76,0,0,0-14-7.55H489.9a17.83,17.83,0,0,0-2,.1" transform="translate(-422.97 -519.5)"/></g></g></svg>
